<svg width="128" height="128" viewBox="0 0 128 128" fill="none" xmlns="http://www.w3.org/2000/svg">
<rect width="128" height="128" rx="64" fill="url(#paint0_linear_267:159)"/>
<path d="M22.627 55.6641C22.627 53.694 23.0033 51.8457 23.7559 50.1191C24.5085 48.3926 25.5267 46.8874 26.8105 45.6035C28.1165 44.2975 29.6328 43.2682 31.3594 42.5156C33.0859 41.763 34.9342 41.3867 36.9043 41.3867H58.752V50.916H36.9043C36.2402 50.916 35.6204 51.0378 35.0449 51.2812C34.4694 51.5247 33.9603 51.8678 33.5176 52.3105C33.097 52.7311 32.765 53.2292 32.5215 53.8047C32.278 54.3802 32.1562 55 32.1562 55.6641C32.1562 56.3281 32.278 56.959 32.5215 57.5566C32.765 58.1322 33.097 58.6413 33.5176 59.084C33.9603 59.5046 34.4694 59.8366 35.0449 60.0801C35.6204 60.3236 36.2402 60.4453 36.9043 60.4453H46.4336C48.4036 60.4453 50.252 60.8216 51.9785 61.5742C53.7272 62.3047 55.2435 63.3229 56.5273 64.6289C57.8333 65.9128 58.8516 67.429 59.582 69.1777C60.3346 70.9043 60.7109 72.7526 60.7109 74.7227C60.7109 76.6927 60.3346 78.541 59.582 80.2676C58.8516 81.9941 57.8333 83.5104 56.5273 84.8164C55.2435 86.1003 53.7272 87.1185 51.9785 87.8711C50.252 88.6237 48.4036 89 46.4336 89H25.2832V79.4707H46.4336C47.0977 79.4707 47.7174 79.349 48.293 79.1055C48.8685 78.862 49.3665 78.5299 49.7871 78.1094C50.2298 77.6667 50.5729 77.1576 50.8164 76.582C51.0599 76.0065 51.1816 75.3867 51.1816 74.7227C51.1816 74.0586 51.0599 73.4388 50.8164 72.8633C50.5729 72.2878 50.2298 71.7897 49.7871 71.3691C49.3665 70.9264 48.8685 70.5833 48.293 70.3398C47.7174 70.0964 47.0977 69.9746 46.4336 69.9746H36.9043C34.9342 69.9746 33.0859 69.5983 31.3594 68.8457C29.6328 68.0931 28.1165 67.0749 26.8105 65.791C25.5267 64.485 24.5085 62.9688 23.7559 61.2422C23.0033 59.4935 22.627 57.6341 22.627 55.6641ZM76.5156 50.916V69.9746H86.0449C87.3509 69.9746 88.5794 69.7311 89.7305 69.2441C90.8815 68.735 91.8887 68.0488 92.752 67.1855C93.6152 66.3223 94.2904 65.3151 94.7773 64.1641C95.2865 62.9909 95.541 61.7513 95.541 60.4453C95.541 59.1393 95.2865 57.9108 94.7773 56.7598C94.2904 55.5866 93.6152 54.5684 92.752 53.7051C91.8887 52.8418 90.8815 52.1667 89.7305 51.6797C88.5794 51.1706 87.3509 50.916 86.0449 50.916H76.5156ZM76.5156 89H66.9863V41.3867H86.0449C87.7936 41.3867 89.4759 41.6191 91.0918 42.084C92.7077 42.5267 94.2129 43.1686 95.6074 44.0098C97.0241 44.8288 98.3079 45.8249 99.459 46.998C100.632 48.1491 101.628 49.4329 102.447 50.8496C103.288 52.2663 103.93 53.7826 104.373 55.3984C104.838 57.0143 105.07 58.6966 105.07 60.4453C105.07 63.0573 104.572 65.5254 103.576 67.8496C102.58 70.1517 101.219 72.166 99.4922 73.8926C97.7656 75.6191 95.7402 76.9805 93.416 77.9766C91.1139 78.9727 88.6569 79.4707 86.0449 79.4707H76.5156V89Z" fill="white"/>
<defs>
<linearGradient id="paint0_linear_267:159" x1="128" y1="-32" x2="3" y2="161.5" gradientUnits="userSpaceOnUse">
<stop stop-color="#FD8210"/>
<stop offset="1" stop-color="#FD10AC"/>
</linearGradient>
</defs>
</svg>
