<svg width="96" height="96" viewBox="0 0 96 96" fill="none" xmlns="http://www.w3.org/2000/svg">
<path d="M70 60C70 73.2548 59.2548 84 46 84C32.7452 84 22 73.2548 22 60C22 46.7452 32.7452 36 46 36C59.2548 36 70 46.7452 70 60Z" fill="#FFAC2F"/>
<path fill-rule="evenodd" clip-rule="evenodd" d="M72 60C72 74.3594 60.3594 86 46 86C31.6406 86 20 74.3594 20 60C20 45.6406 31.6406 34 46 34C60.3594 34 72 45.6406 72 60ZM46 84C59.2548 84 70 73.2548 70 60C70 46.7452 59.2548 36 46 36C32.7452 36 22 46.7452 22 60C22 73.2548 32.7452 84 46 84Z" fill="#884A28"/>
<path fill-rule="evenodd" clip-rule="evenodd" d="M46 84C59.2548 84 70 73.2548 70 60C70 46.7452 59.2548 36 46 36C45.0469 36 44.1068 36.0556 43.1827 36.1636C52.2316 37.3715 59.2116 45.1206 59.2116 54.5C59.2116 64.7173 50.9288 73 40.7116 73C31.0818 73 23.1704 65.6423 22.2925 56.242C22.1 57.4664 22 58.7215 22 60C22 73.2548 32.7452 84 46 84Z" fill="#FF862F"/>
<path d="M61.2143 53.8572C61.2143 54.9223 60.3509 55.7857 59.2857 55.7857C58.2206 55.7857 57.3572 54.9223 57.3572 53.8572C57.3572 52.792 58.2206 51.9286 59.2857 51.9286C60.3509 51.9286 61.2143 52.792 61.2143 53.8572Z" fill="#DD7429"/>
<path d="M67 57.7143C67 58.7794 66.1365 59.6428 65.0714 59.6428C64.0063 59.6428 63.1428 58.7794 63.1428 57.7143C63.1428 56.6492 64.0063 55.7857 65.0714 55.7857C66.1365 55.7857 67 56.6492 67 57.7143Z" fill="#DD7429"/>
<path d="M66.0357 51.4464C66.0357 52.2453 65.3881 52.8929 64.5893 52.8929C63.7904 52.8929 63.1428 52.2453 63.1428 51.4464C63.1428 50.6476 63.7904 50 64.5893 50C65.3881 50 66.0357 50.6476 66.0357 51.4464Z" fill="#DD7429"/>
<path d="M67.2114 66C67.2114 67.6569 65.8683 69 64.2114 69C62.5546 69 61.2114 67.6569 61.2114 66C61.2114 64.3431 62.5546 63 64.2114 63C65.8683 63 67.2114 64.3431 67.2114 66Z" fill="#DD7429"/>
<path d="M61.2143 60.6072C61.2143 61.6723 60.3509 62.5357 59.2857 62.5357C58.2206 62.5357 57.3572 61.6723 57.3572 60.6072C57.3572 59.542 58.2206 58.6786 59.2857 58.6786C60.3509 58.6786 61.2143 59.542 61.2143 60.6072Z" fill="#DD7429"/>
<path d="M63.1428 72.25C63.1428 73.3151 62.2793 74.1786 61.2142 74.1786C60.1491 74.1786 59.2856 73.3151 59.2856 72.25C59.2856 71.1849 60.1491 70.3214 61.2142 70.3214C62.2793 70.3214 63.1428 71.1849 63.1428 72.25Z" fill="#DD7429"/>
<path d="M58.0686 75.9286C58.0686 76.9937 57.2051 77.8571 56.14 77.8571C55.0749 77.8571 54.2114 76.9937 54.2114 75.9286C54.2114 74.8635 55.0749 74 56.14 74C57.2051 74 58.0686 74.8635 58.0686 75.9286Z" fill="#DD7429"/>
<path d="M58.3571 69.3572C58.3571 70.4223 57.4937 71.2857 56.4286 71.2857C55.3635 71.2857 54.5 70.4223 54.5 69.3572C54.5 68.292 55.3635 67.4286 56.4286 67.4286C57.4937 67.4286 58.3571 68.292 58.3571 69.3572Z" fill="#DD7429"/>
<path d="M51.2857 78.5536C51.2857 79.3524 50.6381 80 49.8393 80C49.0404 80 48.3928 79.3524 48.3928 78.5536C48.3928 77.7548 49.0404 77.1072 49.8393 77.1072C50.6381 77.1072 51.2857 77.7548 51.2857 78.5536Z" fill="#DD7429"/>
<path d="M64.843 35.6173C64.843 35.6173 60.2719 27.809 55.6255 27.6058C50.979 27.4025 47.0283 31.4442 47.0283 31.4442C47.0283 31.4442 50.6109 35.8156 55.2574 36.0189C59.9038 36.2222 64.843 35.6173 64.843 35.6173Z" fill="#64AC1D"/>
<path fill-rule="evenodd" clip-rule="evenodd" d="M66.5688 34.6069L64.8428 35.6173L65.0859 37.6025C65.7542 37.5206 66.3365 37.108 66.6352 36.5046C66.9339 35.9012 66.909 35.1879 66.5688 34.6069ZM47.0281 31.4442C45.5979 30.0462 45.5983 30.0458 45.5987 30.0453L45.602 30.042L45.6075 30.0364L45.6231 30.0207C45.6354 30.0083 45.6517 29.9921 45.6717 29.9725C45.7117 29.9331 45.767 29.8796 45.8368 29.814C45.9762 29.6829 46.1742 29.5028 46.4243 29.2906C46.9225 28.8681 47.6385 28.309 48.5206 27.755C50.2455 26.6718 52.808 25.4806 55.7127 25.6076C57.4051 25.6817 58.9317 26.4325 60.176 27.3071C61.4366 28.1934 62.5626 29.3163 63.4842 30.3736C64.4125 31.4387 65.1774 32.4884 65.7086 33.2676C65.9754 33.659 66.1861 33.9865 66.332 34.2193C66.405 34.3358 66.462 34.4288 66.5018 34.4946C66.5217 34.5276 66.5373 34.5537 66.5485 34.5725L66.562 34.5953L66.5663 34.6025L66.5678 34.6051L66.5688 34.6069C66.5691 34.6073 66.5688 34.6069 64.8428 35.6173C65.0859 37.6025 65.0861 37.6025 65.0859 37.6025L65.0668 37.6048L65.0194 37.6104C64.9787 37.6152 64.9198 37.622 64.8441 37.6305C64.6927 37.6474 64.4737 37.6711 64.1974 37.6987C63.6451 37.7539 62.862 37.825 61.9307 37.8895C60.0768 38.018 57.5978 38.1232 55.1698 38.017C52.2651 37.8899 49.8164 36.4794 48.1927 35.2496C47.3624 34.6208 46.6979 34.0013 46.2385 33.5368C46.0079 33.3037 45.8264 33.107 45.699 32.9642C45.6352 32.8928 45.5848 32.8346 45.5483 32.7919C45.5301 32.7705 45.5154 32.753 45.5041 32.7396L45.49 32.7226L45.4849 32.7165L45.482 32.713C45.4816 32.7125 45.4812 32.712 47.0281 31.4442ZM47.0281 31.4442L45.5979 30.0462C44.8853 30.7752 44.835 31.9235 45.4812 32.712L47.0281 31.4442ZM63.5966 33.7385C61.9229 31.4143 58.7916 27.7443 55.6253 27.6057C50.9788 27.4024 47.0281 31.4442 47.0281 31.4442C47.0281 31.4442 50.6107 35.8156 55.2572 36.0189C57.9505 36.1367 60.7423 35.983 62.6133 35.833C63.9701 35.7242 64.8428 35.6173 64.8428 35.6173C64.8428 35.6173 64.379 34.825 63.5966 33.7385Z" fill="#156319"/>
<path d="M70.5672 17.3078C70.5672 17.3078 65.074 26.9861 59.2112 30.0766C53.3485 33.1671 45.7979 30.3647 45.7979 30.3647C45.7979 30.3647 47.7527 22.5517 53.6154 19.4612C59.4781 16.3707 70.5672 17.3078 70.5672 17.3078Z" fill="#87D623"/>
<path fill-rule="evenodd" clip-rule="evenodd" d="M72.3065 18.295L70.5671 17.3077L70.7356 15.3148C71.415 15.3723 72.0184 15.7719 72.3364 16.3751C72.6544 16.9783 72.6431 17.7019 72.3065 18.295ZM68.3042 17.196C69.6923 17.2338 70.5671 17.3077 70.5671 17.3077C70.5671 17.3077 70.1338 18.0713 69.3806 19.2379C67.4521 22.2249 63.4272 27.8541 59.2112 30.0766C53.3485 33.167 45.7979 30.3647 45.7979 30.3647C45.7979 30.3647 47.7526 22.5517 53.6154 19.4612C57.8314 17.2387 64.7501 17.0991 68.3042 17.196ZM45.7979 30.3647C43.8577 29.8793 43.8578 29.8787 43.858 29.878L43.8592 29.8732L43.8615 29.8642L43.8683 29.8378C43.8739 29.8164 43.8815 29.7877 43.8912 29.7519C43.9106 29.6805 43.9385 29.5809 43.9753 29.4563C44.0489 29.2073 44.1585 28.8573 44.3084 28.4315C44.6073 27.5824 45.071 26.4184 45.7352 25.1462C47.0422 22.6429 49.2365 19.5086 52.6827 17.6919C56.035 15.9248 60.6608 15.381 64.2031 15.2274C66.0202 15.1486 67.6435 15.1699 68.8128 15.2108C69.3984 15.2313 69.8727 15.2568 70.2035 15.2774C70.3689 15.2877 70.4986 15.2968 70.5886 15.3034C70.6336 15.3067 70.6687 15.3095 70.6933 15.3114L70.7224 15.3138L70.731 15.3145L70.7356 15.3148C70.7359 15.3149 70.7356 15.3148 70.5671 17.3077C72.3065 18.295 72.3067 18.2946 72.3065 18.295L72.3043 18.2989L72.3 18.3064L72.2855 18.3318C72.2732 18.3532 72.2556 18.3837 72.2329 18.4227C72.1875 18.5007 72.1217 18.6128 72.0367 18.7551C71.8668 19.0397 71.6198 19.4454 71.3058 19.9401C70.6788 20.9279 69.7791 22.2792 68.6872 23.7338C66.5587 26.5695 63.4961 30.0787 60.1438 31.8458C56.6976 33.6625 52.8718 33.7016 50.0679 33.3653C48.6429 33.1944 47.4205 32.9192 46.5511 32.686C46.1152 32.5691 45.7644 32.4617 45.5174 32.3817C45.3938 32.3417 45.2959 32.3084 45.226 32.284C45.191 32.2718 45.163 32.2619 45.1422 32.2544L45.1166 32.2451L45.1079 32.2419L45.1032 32.2402C45.1026 32.2399 45.102 32.2397 45.7979 30.3647ZM43.8577 29.8793L45.7979 30.3647L45.102 32.2397C44.1463 31.885 43.6103 30.8682 43.8577 29.8793Z" fill="#156319"/>
<path d="M58.7036 29.1847C63.6882 26.5571 68.5108 18.6172 68.5108 18.6172C57.1763 21.5054 49.7486 27.2214 47.4516 29.7184C47.4516 29.7184 53.719 31.8123 58.7036 29.1847Z" fill="#79C01E"/>
<path d="M36.9462 25.1521C39.0002 26 44.0002 34 45.3909 38.0638C45.5069 38.4028 46.4382 38.0483 46.3411 37.7521C45.7749 34.0015 43.5002 25 41.0002 22C38.0691 22.1742 36.9532 24.3298 36.9462 25.1521Z" fill="#8C5936"/>
<path fill-rule="evenodd" clip-rule="evenodd" d="M36.1648 26.9932C35.4209 26.6775 34.9393 25.9445 34.9462 25.1352C34.9552 24.0714 35.5467 22.8586 36.4438 21.9375C37.4282 20.9269 38.9046 20.121 40.8815 20.0035C41.5156 19.9659 42.1299 20.2317 42.5365 20.7196C43.345 21.6898 44.0461 23.0222 44.6449 24.4045C45.2568 25.8172 45.8176 27.4148 46.3073 29.0065C47.2679 32.129 47.9947 35.3598 48.3037 37.3565C48.5482 38.4701 47.8276 39.239 47.6056 39.4437C47.2776 39.7461 46.9071 39.9274 46.6133 40.0314C46.325 40.1335 45.8963 40.2372 45.4105 40.1906C44.9442 40.1458 43.8941 39.8673 43.4985 38.7113C42.8785 36.8996 41.3778 34.039 39.7349 31.4836C38.9225 30.22 38.1108 29.0868 37.4017 28.2381C37.0464 27.8129 36.7395 27.4864 36.4906 27.2583C36.2683 27.0547 36.1617 26.9943 36.1626 26.9925C36.1627 26.9924 36.1634 26.9926 36.1648 26.9932ZM46.3409 37.7521C46.3403 37.7478 46.3397 37.7435 46.339 37.7393C46.2741 37.3108 46.1871 36.8145 46.0801 36.2668C45.9066 35.379 45.6808 34.3564 45.4119 33.2698C44.3916 29.1466 42.7511 24.1012 41.0001 22C39.5118 22.0884 38.4916 22.6876 37.8468 23.3638C37.7279 23.4885 37.6217 23.6159 37.5278 23.7431C37.1279 24.2847 36.9489 24.8243 36.9461 25.1521C38.4277 25.7637 41.4423 30.0969 43.5293 33.9896C44.0165 34.8985 44.4532 35.7833 44.808 36.5912C45.013 37.0579 45.1907 37.4989 45.3349 37.904C45.3541 37.9579 45.3727 38.0111 45.3908 38.0638C45.5068 38.4028 46.4381 38.0483 46.3409 37.7521ZM44.3561 38.0032C44.3709 38.1216 44.398 38.2458 44.4406 38.3754C44.4058 38.2695 44.38 38.1608 44.3633 38.0506C44.361 38.0349 44.3586 38.0191 44.3561 38.0032Z" fill="#583A24"/>
<path d="M41.666 22.3474C42.2012 23.0915 41.5836 24.451 40.2866 25.3839C38.9896 26.3167 37.5043 26.4697 36.9691 25.7256C36.4339 24.9815 37.0514 23.622 38.3484 22.6891C39.6454 21.7563 41.1308 21.6032 41.666 22.3474Z" fill="#C27A49"/>
<path d="M42.4548 44.6632C44.123 47.5263 41.9939 51.8759 37.6992 54.3783C33.4045 56.8808 28.5705 56.5883 26.9023 53.7252C25.234 50.862 27.3631 46.5124 31.6578 44.01C35.9525 41.5076 40.7865 41.8 42.4548 44.6632Z" fill="#FFC671"/>
<path fill-rule="evenodd" clip-rule="evenodd" d="M34.0831 47.1547C34.6728 48.0887 34.3938 49.3239 33.4599 49.9136C32.7473 50.3636 32.1971 50.9081 31.7815 51.5492C31.1807 52.476 29.9422 52.7403 29.0154 52.1395C28.0885 51.5386 27.8242 50.3002 28.425 49.3733C29.1705 48.2234 30.1461 47.2755 31.3241 46.5315C32.2581 45.9418 33.4933 46.2208 34.0831 47.1547Z" fill="white"/>
</svg>
