<svg width="96" height="96" viewBox="0 0 96 96" fill="none" xmlns="http://www.w3.org/2000/svg">
<path d="M34.702 45.8577C31.2898 52.0294 28 52.5001 28 61.7567C28 72.9109 36.9543 81.1396 48 81.1396C59.0457 81.1396 68 73.7804 68 62.6263C68 53.3696 64.3572 52.5 60.6324 46.1542C56.5038 39.1205 59.2661 28.9657 47.5994 28.9657C34.9327 28.9657 38.7178 38.5941 34.702 45.8577Z" fill="#A4D31F"/>
<path fill-rule="evenodd" clip-rule="evenodd" d="M30.6122 48.448C31.3776 47.422 32.1621 46.3182 32.9517 44.89C33.8071 43.3427 34.2755 41.6179 34.6736 39.7393C34.7598 39.3326 34.8442 38.9083 34.9306 38.474C35.2216 37.011 35.5352 35.4348 36.0152 34.038C36.6678 32.1385 37.711 30.2738 39.6778 28.9316C41.6162 27.6089 44.2004 26.9657 47.5994 26.9657C50.8046 26.9657 53.2752 27.6656 55.1608 29.0502C57.0392 30.4295 58.1001 32.316 58.8149 34.219C59.3443 35.6283 59.7347 37.2061 60.0996 38.6812C60.2113 39.1325 60.3205 39.5743 60.4307 39.9986C60.9251 41.9031 61.4717 43.6331 62.3573 45.1418C63.2246 46.6195 64.0905 47.7855 64.9369 48.8796C65.0703 49.0521 65.2053 49.2253 65.3411 49.3995C66.0454 50.3029 66.7707 51.2332 67.4014 52.2267C69.0093 54.759 70 57.6742 70 62.6263C70 75.0907 59.9327 83.1396 48 83.1396C35.9403 83.1396 26 74.1039 26 61.7567C26 56.843 26.885 54.0319 28.3643 51.6084C28.9291 50.6831 29.5809 49.8183 30.2077 48.9865C30.3441 48.8056 30.4793 48.6261 30.6122 48.448ZM31.7836 50.219C32.6907 49.0145 33.691 47.6863 34.702 45.8577C35.9488 43.6024 36.4437 41.1192 36.9124 38.767C37.9534 33.5433 38.8656 28.9657 47.5994 28.9657C55.6326 28.9657 56.8248 33.7802 58.1361 39.0753C58.7292 41.4703 59.3466 43.9636 60.6324 46.1542C61.7177 48.0032 62.796 49.3872 63.7793 50.6493C66.1707 53.7188 68 56.0667 68 62.6263C68 73.7804 59.0457 81.1396 48 81.1396C36.9543 81.1396 28 72.9109 28 61.7567C28 55.2428 29.6291 53.0796 31.7836 50.219Z" fill="#5B7C14"/>
<path fill-rule="evenodd" clip-rule="evenodd" d="M33.8278 75.6024C35.5194 76.39 37.3539 76.9664 39.2979 77.2955C50.1887 79.1392 60.2457 73.3778 62.1074 62.3801C63.2023 55.9125 61.7906 53.2922 59.945 49.8666C59.1862 48.4581 58.354 46.9135 57.5926 44.9094C56.6904 42.5349 56.4978 39.9735 56.3128 37.5131C56.177 35.7075 56.0453 33.9563 55.6403 32.3734C56.9288 34.2003 57.5192 36.5847 58.136 39.0754C58.7291 41.4704 59.3465 43.9637 60.6324 46.1543C61.7176 48.0033 62.7959 49.3873 63.7792 50.6494C66.1707 53.7188 67.9999 56.0668 67.9999 62.6264C67.9999 73.7805 59.0456 81.1397 47.9999 81.1397C42.4618 81.1397 37.4494 79.0711 33.8278 75.6024Z" fill="#92BC1B"/>
<path d="M40.2608 47.8882C42.4337 49.1357 42.5259 53.0546 40.4667 56.6412C38.4076 60.2279 34.9768 62.1241 32.8039 60.8766C30.631 59.6291 30.5388 55.7103 32.5979 52.1236C34.6571 48.537 38.0879 46.6407 40.2608 47.8882Z" fill="#BBEB35"/>
<path d="M44.9173 31.1066C45.6993 31.8088 45.3937 33.4243 44.2347 34.7151C43.0757 36.0059 41.5022 36.483 40.7202 35.7809C39.9382 35.0787 40.2439 33.4631 41.4029 32.1724C42.5619 30.8816 44.1353 30.4044 44.9173 31.1066Z" fill="#BBEB35"/>
<path fill-rule="evenodd" clip-rule="evenodd" d="M36.2401 53.0929C37.1219 53.7581 37.2975 55.0122 36.6324 55.894C36.3052 56.3278 36.1311 56.6876 36.0471 56.9734C35.7355 58.0331 34.6239 58.6396 33.5642 58.3281C32.5045 58.0165 31.898 56.9049 32.2095 55.8451C32.4575 55.0017 32.8884 54.2151 33.439 53.4852C34.1042 52.6033 35.3583 52.4277 36.2401 53.0929Z" fill="white"/>
<path d="M61.9696 17.1919C61.9696 17.1919 58.6661 23.0122 55.1404 24.8708C51.6147 26.7293 47.074 25.044 47.074 25.044C47.074 25.044 48.2495 20.3455 51.7752 18.4869C55.3009 16.6284 61.9696 17.1919 61.9696 17.1919Z" fill="#87D623"/>
<path fill-rule="evenodd" clip-rule="evenodd" d="M63.709 18.1791L61.9696 17.1919L62.138 15.199C62.8175 15.2564 63.4208 15.656 63.7388 16.2592C64.0568 16.8624 64.0455 17.5861 63.709 18.1791ZM59.676 17.1116C61.0329 17.1127 61.9696 17.1919 61.9696 17.1919C61.9696 17.1919 61.5056 18.0094 60.7398 19.1295C59.4622 20.9981 57.3447 23.7087 55.1404 24.8707C51.6147 26.7293 47.0739 25.044 47.0739 25.044C47.0739 25.044 48.2495 20.3454 51.7752 18.4869C53.9795 17.3249 57.4125 17.1097 59.676 17.1116ZM47.0739 25.044C45.1337 24.5586 45.1339 24.558 45.134 24.5574L45.1344 24.5561L45.1351 24.5531L45.137 24.5458L45.1421 24.5261C45.1461 24.5107 45.1514 24.4907 45.1579 24.4666C45.1711 24.4182 45.1894 24.3526 45.2133 24.2718C45.261 24.1104 45.3311 23.8869 45.4262 23.6167C45.6155 23.0789 45.9088 22.3426 46.3295 21.5368C47.1496 19.966 48.5648 17.9184 50.8425 16.7177C53.0263 15.5665 55.9628 15.2374 58.1079 15.1443C59.2264 15.0958 60.2241 15.109 60.9424 15.1341C61.3026 15.1467 61.5951 15.1624 61.8004 15.1752C61.9031 15.1815 61.9842 15.1872 62.0413 15.1914L62.1085 15.1966L62.1281 15.1982L62.1364 15.1988L62.138 15.199C62.1384 15.199 62.138 15.199 61.9696 17.1919C63.709 18.1791 63.7091 18.1788 63.709 18.1791L63.7082 18.1805L63.704 18.1877L63.6943 18.2048L63.6605 18.2632C63.6318 18.3126 63.5906 18.3827 63.5378 18.4711C63.4324 18.6477 63.28 18.8979 63.0869 19.2022C62.7017 19.809 62.1487 20.6396 61.4767 21.535C60.1877 23.2521 58.2567 25.4888 56.073 26.64C53.7953 27.8407 51.3062 27.8511 49.5469 27.6401C48.6442 27.5319 47.8711 27.3577 47.3204 27.21C47.0437 27.1358 46.8197 27.0673 46.6596 27.0155C46.5794 26.9895 46.515 26.9676 46.4676 26.9511C46.444 26.9429 46.4246 26.936 46.4096 26.9306L46.3904 26.9236L46.3834 26.921L46.3792 26.9195C46.3786 26.9193 46.378 26.919 47.0739 25.044ZM45.1337 24.5586L47.0739 25.044L46.378 26.919C45.4223 26.5643 44.8863 25.5475 45.1337 24.5586Z" fill="#156319"/>
<path d="M54.8352 24.3344C57.8328 22.7543 60.733 17.9794 60.733 17.9794C53.9167 19.7163 49.4498 23.1538 48.0684 24.6554C48.0684 24.6554 51.8375 25.9146 54.8352 24.3344Z" fill="#79C01E"/>
<path d="M41.637 19.5413C42.9256 20.0732 46.0625 25.0923 46.935 27.6418C47.0078 27.8545 47.5921 27.6321 47.5311 27.4463C47.176 25.0932 45.7488 19.4459 44.1804 17.5637C42.3415 17.673 41.6414 19.0253 41.637 19.5413Z" fill="#8C5936"/>
<path fill-rule="evenodd" clip-rule="evenodd" d="M40.7668 21.342C40.0737 21.0073 39.6305 20.301 39.6371 19.5243C39.6448 18.6137 40.1317 17.6784 40.788 17.0045C41.5316 16.2411 42.631 15.6522 44.0618 15.5672C44.6959 15.5295 45.3102 15.7953 45.7168 16.2833C46.2924 16.974 46.7659 17.8872 47.1509 18.776C47.5491 19.6953 47.91 20.7251 48.2223 21.7403C48.8291 23.7126 49.2916 25.7582 49.4943 27.0539C49.7276 28.1368 49.0249 28.8755 48.8297 29.0554C48.5299 29.3319 48.2007 29.4902 47.9507 29.5788C47.7063 29.6653 47.3238 29.7609 46.8761 29.7179C46.4479 29.6768 45.4275 29.4138 45.0427 28.2893C44.6818 27.2347 43.7765 25.4979 42.7598 23.9165C42.2605 23.1399 41.7696 22.4563 41.351 21.9552C41.1409 21.7037 40.9715 21.5255 40.8478 21.4122C40.8112 21.3786 40.7843 21.356 40.7668 21.342ZM47.5311 27.4462C47.5307 27.4436 47.5303 27.4409 47.5299 27.4382C47.4601 26.9772 47.3494 26.3909 47.2048 25.7319C46.9442 24.544 46.5734 23.1197 46.1331 21.7669C45.5681 20.0314 44.8887 18.4136 44.1804 17.5637C43.6442 17.5955 43.2048 17.7331 42.8513 17.9248C42.4756 18.1284 42.1969 18.3932 42.0019 18.6573C41.751 18.997 41.6388 19.3356 41.637 19.5413C42.2545 19.7962 43.2964 21.0814 44.3102 22.6316C45.0194 23.716 45.7148 24.93 46.2416 26.0117C46.5128 26.5687 46.7394 27.0905 46.9 27.5415C46.912 27.5753 46.9237 27.6088 46.935 27.6418C47.0078 27.8545 47.5921 27.6321 47.5311 27.4462ZM45.5419 27.6692C45.5565 27.7964 45.585 27.93 45.6308 28.0696C45.596 27.9636 45.5702 27.855 45.5535 27.7448C45.5498 27.72 45.5459 27.6949 45.5419 27.6692Z" fill="#583A24"/>
<path d="M44.5982 17.7817C44.934 18.2485 44.5465 19.1014 43.7328 19.6867C42.9191 20.272 41.9872 20.368 41.6514 19.9011C41.3157 19.4342 41.7031 18.5813 42.5168 17.9961C43.3305 17.4108 44.2624 17.3148 44.5982 17.7817Z" fill="#C27A49"/>
<path d="M60.1739 57.6613C60.1739 58.6218 59.3953 59.4004 58.4348 59.4004C57.4743 59.4004 56.6957 58.6218 56.6957 57.6613C56.6957 56.7008 57.4743 55.9222 58.4348 55.9222C59.3953 55.9222 60.1739 56.7008 60.1739 57.6613Z" fill="#83A918"/>
<path d="M65.3913 61.1396C65.3913 62.1001 64.6127 62.8788 63.6522 62.8788C62.6917 62.8788 61.9131 62.1001 61.9131 61.1396C61.9131 60.1791 62.6917 59.4005 63.6522 59.4005C64.6127 59.4005 65.3913 60.1791 65.3913 61.1396Z" fill="#83A918"/>
<path d="M64.5218 55.4874C64.5218 56.2078 63.9378 56.7917 63.2174 56.7917C62.4971 56.7917 61.9131 56.2078 61.9131 55.4874C61.9131 54.767 62.4971 54.183 63.2174 54.183C63.9378 54.183 64.5218 54.767 64.5218 55.4874Z" fill="#83A918"/>
<path d="M65.3913 67.2265C65.3913 68.187 64.6127 68.9656 63.6522 68.9656C62.6917 68.9656 61.9131 68.187 61.9131 67.2265C61.9131 66.266 62.6917 65.4874 63.6522 65.4874C64.6127 65.4874 65.3913 66.266 65.3913 67.2265Z" fill="#83A918"/>
<path d="M60.1739 63.7483C60.1739 64.7088 59.3953 65.4875 58.4348 65.4875C57.4743 65.4875 56.6957 64.7088 56.6957 63.7483C56.6957 62.7879 57.4743 62.0092 58.4348 62.0092C59.3953 62.0092 60.1739 62.7879 60.1739 63.7483Z" fill="#83A918"/>
<path d="M61.9131 72.444C61.9131 73.4045 61.1344 74.1831 60.1739 74.1831C59.2134 74.1831 58.4348 73.4045 58.4348 72.444C58.4348 71.4835 59.2134 70.7048 60.1739 70.7048C61.1344 70.7048 61.9131 71.4835 61.9131 72.444Z" fill="#83A918"/>
<path d="M56.6957 69.8352C56.6957 70.7957 55.917 71.5743 54.9565 71.5743C53.996 71.5743 53.2174 70.7957 53.2174 69.8352C53.2174 68.8747 53.996 68.0961 54.9565 68.0961C55.917 68.0961 56.6957 68.8747 56.6957 69.8352Z" fill="#83A918"/>
<path d="M57.5652 76.357C57.5652 77.0773 56.9813 77.6613 56.2609 77.6613C55.5405 77.6613 54.9565 77.0773 54.9565 76.357C54.9565 75.6366 55.5405 75.0526 56.2609 75.0526C56.9813 75.0526 57.5652 75.6366 57.5652 76.357Z" fill="#83A918"/>
</svg>
