<svg width="377" height="105" viewBox="0 0 377 105" fill="none" xmlns="http://www.w3.org/2000/svg">
<g clip-path="url(#clip0_904:783)">
<path fill-rule="evenodd" clip-rule="evenodd" d="M14.451 82.333C16.1729 82.9194 17.981 83.2125 19.8 83.2C19.8807 83.2001 19.9613 83.1998 20.042 83.199C22.0759 83.1695 24.0966 82.8671 26.05 82.3C28.15 81.7 30.1333 80.8667 32 79.8C32.9905 79.2304 33.9561 78.6185 34.894 77.966C37.0545 76.4544 39.0806 74.7595 40.95 72.9C43.7833 70.1 46.3167 66.9833 48.55 63.55C48.6891 63.3359 48.8268 63.1209 48.963 62.905C50.9524 59.7761 52.5913 56.4376 53.85 52.95C54.2474 51.8434 54.5904 50.7181 54.878 49.578C55.4796 47.2324 55.7892 44.8215 55.8 42.4C55.8001 41.9381 55.7885 41.4763 55.765 41.015C55.6823 39.4017 55.4523 37.9157 55.075 36.557C54.5815 34.694 53.7045 32.9545 52.5 31.45C50.3 28.75 46.7333 27.4 41.8 27.4C40.2121 27.4041 38.6262 27.5143 37.053 27.73C35.1123 27.9969 33.1907 28.3877 31.3 28.9C31.0673 28.9625 30.835 29.0262 30.603 29.091C27.2259 30.0238 23.9306 31.2308 20.75 32.7C20.0399 33.0292 19.337 33.374 18.642 33.734C16.302 34.9493 14.3547 36.2047 12.8 37.5C12.9983 36.9794 13.208 36.4633 13.429 35.952C14.89 32.5152 16.9262 29.3526 19.45 26.6C19.6264 26.4089 19.8044 26.2192 19.984 26.031C22.5784 23.2917 25.5264 20.9104 28.75 18.95C29.8301 18.2965 30.9317 17.6791 32.053 17.099C34.2084 15.9777 36.4474 15.0252 38.75 14.25C39.3305 14.0562 39.9143 13.8722 40.501 13.698C43.0917 12.93 45.4247 12.464 47.5 12.3C47.503 12.2997 47.506 12.2993 47.509 12.299C48.7697 12.1023 49.4 12.5693 49.4 13.7C49.4 14.4 49.2277 15.136 48.883 15.908C48.6878 16.3391 48.4595 16.7543 48.2 17.15C48.0746 17.3433 47.9463 17.5347 47.815 17.724C47.1437 18.692 46.472 19.484 45.8 20.1C45.4 20.3667 45.2 20.6667 45.2 21C45.2001 21.0097 45.2004 21.0193 45.201 21.029C45.2123 21.2263 45.3417 21.345 45.589 21.385C45.6588 21.3956 45.7294 21.4006 45.8 21.4C45.892 21.4 45.968 21.392 46.028 21.376C46.0528 21.3698 46.077 21.3611 46.1 21.35C46.1153 21.3422 46.131 21.3352 46.147 21.329C46.1958 21.31 46.2477 21.3002 46.3 21.3C47.306 20.95 48.2333 20.32 49.082 19.41C49.5546 18.8966 49.979 18.341 50.35 17.75C51.5167 15.9167 52.1667 14.1667 52.3 12.5C52.3002 12.449 52.2998 12.398 52.299 12.347C52.289 11.8563 52.2307 11.4043 52.124 10.991C51.9523 10.2717 51.5799 9.61589 51.05 9.1C50.7785 8.83882 50.4843 8.60223 50.171 8.393C49.5072 7.95575 48.7727 7.63671 48 7.45C46.8 7.15 45.6333 7 44.5 7C44.4693 6.99993 44.4387 6.99993 44.408 7C44.194 7.00133 43.991 7.006 43.799 7.014C43.6157 7.02163 43.4327 7.03363 43.25 7.05C42.8833 7.08333 42.5333 7.13333 42.2 7.2C36.8667 8.06667 32 9.55 27.6 11.65C26.2232 12.3055 24.8744 13.0181 23.557 13.786C20.9318 15.3047 18.4669 17.0851 16.2 19.1C15.0276 20.1459 13.9183 21.2605 12.878 22.438C11.3003 24.2125 9.93194 26.1627 8.8 28.25C8.29951 29.1787 7.86024 30.139 7.485 31.125C6.64798 33.2863 6.21251 35.5823 6.2 37.9C6.35333 38.3593 6.80933 38.8187 7.568 39.278C7.82212 39.4305 8.08306 39.5713 8.35 39.7C8.56041 39.8027 8.77384 39.899 8.99 39.989C9.97267 40.3963 10.876 40.6 11.7 40.6C12.6333 40.6 13.2 40.3 13.4 39.7C14.2333 38.95 15.2293 38.1933 16.388 37.43C17.1269 36.9457 17.8813 36.4855 18.65 36.05C19.0589 35.8174 19.4709 35.5904 19.886 35.369C21.7571 34.3746 23.6813 33.4836 25.65 32.7C26.115 32.514 26.5821 32.333 27.051 32.157C29.0006 31.4216 30.9862 30.7851 33 30.25C33.5627 30.101 34.1289 29.9653 34.698 29.843C35.55 29.6603 36.3537 29.524 37.109 29.434C37.8027 29.3479 38.501 29.3032 39.2 29.3C40.424 29.3 41.508 29.4477 42.452 29.743C43.8372 30.1393 45.0396 31.0087 45.85 32.2C45.9493 32.3478 46.0447 32.4982 46.136 32.651C47.2453 34.507 47.8 36.79 47.8 39.5C47.7966 40.994 47.6833 42.4857 47.461 43.963C47.1689 45.8892 46.7306 47.7903 46.15 49.65C45.9774 50.2094 45.7954 50.7658 45.604 51.319C44.5277 54.4052 43.1881 57.3932 41.6 60.25C39.6667 63.75 37.4833 66.9667 35.05 69.9C32.6167 72.8333 30.0667 75.2 27.4 77C24.7947 78.794 22.422 80.0133 20.282 80.658C19.1872 81.0028 18.0478 81.1854 16.9 81.2C16.6748 81.2003 16.4496 81.192 16.225 81.175C13.2723 80.947 11.3307 79.1887 10.4 75.9C14.5333 74.4333 18.3333 72.4333 21.8 69.9C22.9649 69.0501 24.1021 68.163 25.21 67.24C27.1957 65.5926 29.0636 63.8083 30.8 61.9C32.3833 60.15 33.7063 58.5043 34.769 56.963C35.3638 56.1077 35.9083 55.2185 36.4 54.3C37.5333 52.2333 38.3333 50.35 38.8 48.65C38.9007 48.2845 38.993 47.9167 39.077 47.547C39.359 46.3003 39.5 45.1847 39.5 44.2C39.5 43.9836 39.4947 43.7672 39.484 43.551C39.3673 41.209 38.606 39.442 37.2 38.25C36.423 37.5871 35.5257 37.0799 34.557 36.756C33.6026 36.4448 32.6039 36.2908 31.6 36.3C30 36.3 28.3 36.65 26.5 37.35C24.7 38.05 23 39.1333 21.4 40.6C20.1671 41.7409 19.003 42.9541 17.914 44.233C16.5669 45.8166 15.3103 47.4749 14.15 49.2C11.85 52.6 10 56.1333 8.6 59.8C8.03075 61.2775 7.56365 62.7924 7.202 64.334C6.74587 66.2563 6.51035 68.2243 6.5 70.2C6.49919 70.6785 6.51754 71.1569 6.555 71.634C6.59313 72.1259 6.65823 72.6153 6.75 73.1C6.80604 73.3915 6.8694 73.6816 6.94 73.97C7.06554 74.4879 7.2191 74.9987 7.4 75.5C7.29394 75.5375 7.1876 75.5741 7.081 75.61C4.99456 76.3243 2.80532 76.6925 0.6 76.7C0.2 76.7 0 76.9333 0 77.4C0 77.6593 0.100667 77.8177 0.302 77.875C0.366519 77.8925 0.433159 77.9009 0.5 77.9C3.03333 77.7667 5.5 77.3667 7.9 76.7C7.97014 76.8406 8.04281 76.98 8.118 77.118C9.15518 79.0895 10.7958 80.6775 12.8 81.65C13.3364 81.91 13.8877 82.138 14.451 82.333V82.333ZM163.226 75.843C163.51 78.1728 163.868 80.493 164.3 82.8C164.3 82.8025 164.301 82.8049 164.302 82.807C164.325 82.8543 164.596 82.79 165.115 82.614C165.177 82.593 165.238 82.5716 165.3 82.55C165.675 82.4187 166.077 82.2663 166.504 82.093C166.855 81.9504 167.204 81.8028 167.55 81.65C167.563 81.6443 167.576 81.6387 167.589 81.633C168.406 81.2717 169.127 80.9107 169.75 80.55C169.782 80.5315 169.814 80.5128 169.846 80.494C170.412 80.158 170.663 79.9267 170.6 79.8C169.4 76.8667 168.433 71.6 167.7 64C167.948 62.1587 168.337 60.5003 168.867 59.025C169.297 57.7988 169.879 56.6314 170.6 55.55C171.164 54.7091 171.798 53.917 172.495 53.182C173.417 52.2023 174.481 51.3658 175.65 50.7C175.832 50.5975 176.017 50.4985 176.203 50.403C177.897 49.5343 179.496 49.1 181 49.1C181.852 49.1 182.384 49.364 182.595 49.892C182.668 50.0861 182.704 50.2925 182.7 50.5C182.7 50.5878 182.696 50.6756 182.687 50.763C182.614 51.5157 182.235 52.428 181.55 53.5C181.502 53.5752 181.454 53.6502 181.405 53.725C180.65 54.8755 179.813 55.9701 178.9 57C177.9 58.1333 177 58.9667 176.2 59.5C175.992 59.4167 175.803 59.379 175.634 59.387C175.536 59.3906 175.44 59.412 175.35 59.45C175.31 59.4672 175.27 59.4836 175.229 59.499C175.021 59.5777 174.778 59.6447 174.5 59.7C174.033 59.8333 173.583 60.0167 173.15 60.25C172.717 60.4833 172.5 60.8667 172.5 61.4C172.5 62 172.933 62.9333 173.8 64.2C173.957 64.4092 174.118 64.6159 174.282 64.82C174.68 65.3173 175.176 65.9077 175.769 66.591C176.077 66.9458 176.388 67.2988 176.7 67.65C178.033 69.15 179.567 70.6667 181.3 72.2C181.728 72.5785 182.163 72.9483 182.606 73.309C183.872 74.3447 185.206 75.2939 186.6 76.15C186.968 76.3759 187.346 76.5861 187.732 76.78C188.348 77.0887 188.943 77.327 189.517 77.495C190.16 77.6909 190.828 77.7936 191.5 77.8C191.71 77.8002 191.92 77.7835 192.128 77.75C192.649 77.6626 193.149 77.4759 193.6 77.2C193.653 77.1683 193.705 77.1353 193.756 77.101C194.355 76.6983 194.87 76.098 195.3 75.3C195.787 74.2843 196.295 73.2791 196.825 72.285C198.055 69.985 199.381 67.738 200.8 65.55C201.582 64.3392 202.378 63.1368 203.186 61.943C204.453 60.0692 205.758 58.2211 207.1 56.4C207.128 56.3646 207.155 56.3283 207.181 56.291C207.334 56.0697 207.368 55.899 207.283 55.779C207.26 55.7478 207.232 55.721 207.2 55.7C207 55.5667 206.733 55.7 206.4 56.1C205.733 56.9 205.083 57.7667 204.45 58.7C203.817 59.6333 203.167 60.5667 202.5 61.5C202.085 62.1246 201.659 62.7424 201.223 63.353C199.37 65.943 197.763 67.742 196.4 68.75C196.109 68.9656 195.816 69.1779 195.521 69.387C194.34 70.221 193.533 70.692 193.1 70.8C193.017 70.8196 192.933 70.8363 192.848 70.85C191.752 71.028 190.369 70.7613 188.7 70.05C187.744 69.6427 186.774 69.1273 185.789 68.504C184.874 67.9201 183.993 67.2844 183.15 66.6C181.25 65.0667 179.633 63.3333 178.3 61.4C178.211 61.266 178.119 61.1336 178.025 61.003C177.748 60.6197 177.491 60.3147 177.253 60.088C177.144 59.9821 177.026 59.8857 176.9 59.8C177.219 59.6591 177.535 59.5114 177.848 59.357C178.559 59.0077 179.303 58.6023 180.08 58.141C180.902 57.6517 181.709 57.1378 182.5 56.6C184.567 55.2 186.383 53.5833 187.95 51.75C188.054 51.6288 188.155 51.5058 188.255 51.381C188.785 50.715 189.212 50.047 189.536 49.377C190.029 48.3901 190.291 47.3034 190.3 46.2C190.3 46.1323 190.298 46.0646 190.295 45.997C190.272 45.2639 189.97 44.5672 189.45 44.05C189.227 43.8303 188.965 43.6543 188.678 43.531C188.411 43.4137 188.11 43.3277 187.773 43.273C187.451 43.2225 187.126 43.1981 186.8 43.2C186.091 43.2064 185.386 43.3035 184.702 43.489C183.359 43.8397 181.892 44.51 180.3 45.5C179.274 46.1398 178.281 46.8324 177.327 47.575C175.836 48.7385 174.424 49.9996 173.1 51.35C172.455 52.0035 171.833 52.6789 171.234 53.375C169.781 55.0534 168.497 56.8704 167.4 58.8C167.355 57.897 167.333 56.9931 167.333 56.089C167.333 55.6259 167.339 55.1629 167.35 54.7C167.383 53.3 167.433 51.9 167.5 50.5C168.333 49.1667 169.277 47.6577 170.332 45.973C171.005 44.8986 171.677 43.8242 172.35 42.75C174.25 39.7167 176.2 36.5 178.2 33.1C178.325 32.8878 178.45 32.6755 178.574 32.463C180.385 29.372 182.144 26.2505 183.85 23.1C184.095 22.6481 184.337 22.1948 184.576 21.74C186.013 19.0053 187.205 16.492 188.15 14.2C188.287 13.8672 188.42 13.5325 188.548 13.196C189.091 11.7687 189.457 10.523 189.647 9.459C189.743 8.9448 189.795 8.42314 189.8 7.9C189.8 7.87733 189.8 7.85467 189.8 7.832C189.787 6.40467 189.387 5.494 188.6 5.1C188.49 4.81773 188.368 4.54046 188.233 4.269C187.692 3.15635 186.913 2.17672 185.95 1.4C185.833 1.30633 185.714 1.21563 185.592 1.128C185.166 0.820667 184.742 0.576333 184.32 0.395C183.747 0.139886 183.127 0.00543136 182.5 0C181.915 0.00301519 181.339 0.144909 180.82 0.414C180.454 0.601801 180.112 0.832056 179.8 1.1C176.533 4.16667 173.783 7.86667 171.55 12.2C169.317 16.5333 167.517 21.25 166.15 26.35C164.783 31.45 163.783 36.75 163.15 42.25C162.517 47.75 162.2 53.1667 162.2 58.5C162.2 62.9667 162.383 67.25 162.75 71.35C162.884 72.8502 163.042 74.3481 163.226 75.843V75.843ZM305.026 75.843C305.31 78.1728 305.668 80.493 306.1 82.8C306.1 82.8025 306.101 82.8049 306.102 82.807C306.125 82.8543 306.396 82.79 306.915 82.614C306.977 82.593 307.038 82.5716 307.1 82.55C307.475 82.4187 307.877 82.2663 308.304 82.093C308.655 81.9504 309.004 81.8028 309.35 81.65C309.363 81.6443 309.376 81.6387 309.389 81.633C310.206 81.2717 310.927 80.9107 311.55 80.55C311.582 80.5315 311.614 80.5128 311.646 80.494C312.212 80.158 312.463 79.9267 312.4 79.8C311.2 76.8667 310.233 71.6 309.5 64C309.748 62.1587 310.137 60.5003 310.667 59.025C311.097 57.7988 311.679 56.6314 312.4 55.55C312.964 54.7091 313.598 53.917 314.295 53.182C315.217 52.2023 316.281 51.3658 317.45 50.7C317.632 50.5975 317.817 50.4985 318.003 50.403C319.697 49.5343 321.296 49.1 322.8 49.1C323.652 49.1 324.184 49.364 324.395 49.892C324.468 50.0861 324.504 50.2925 324.5 50.5C324.5 50.5878 324.496 50.6756 324.487 50.763C324.414 51.5157 324.035 52.428 323.35 53.5C323.302 53.5752 323.254 53.6502 323.205 53.725C322.45 54.8755 321.613 55.9701 320.7 57C319.7 58.1333 318.8 58.9667 318 59.5C317.792 59.4167 317.603 59.379 317.434 59.387C317.336 59.3906 317.24 59.412 317.15 59.45C317.11 59.4672 317.07 59.4836 317.029 59.499C316.821 59.5777 316.578 59.6447 316.3 59.7C315.833 59.8333 315.383 60.0167 314.95 60.25C314.517 60.4833 314.3 60.8667 314.3 61.4C314.3 62 314.733 62.9333 315.6 64.2C315.757 64.4092 315.918 64.6159 316.082 64.82C316.48 65.3173 316.976 65.9077 317.569 66.591C317.877 66.9458 318.188 67.2988 318.5 67.65C319.833 69.15 321.367 70.6667 323.1 72.2C323.528 72.5785 323.963 72.9483 324.406 73.309C325.672 74.3447 327.006 75.2939 328.4 76.15C328.768 76.3759 329.146 76.5861 329.532 76.78C330.148 77.0887 330.743 77.327 331.317 77.495C331.96 77.6909 332.628 77.7936 333.3 77.8C333.51 77.8002 333.72 77.7835 333.928 77.75C334.449 77.6626 334.949 77.4759 335.4 77.2C335.453 77.1683 335.505 77.1353 335.556 77.101C336.155 76.6983 336.67 76.098 337.1 75.3C337.587 74.2843 338.095 73.2791 338.625 72.285C339.855 69.985 341.181 67.738 342.6 65.55C343.382 64.3392 344.178 63.1368 344.986 61.943C346.253 60.0692 347.558 58.2211 348.9 56.4C348.928 56.3646 348.955 56.3283 348.981 56.291C349.134 56.0697 349.168 55.899 349.083 55.779C349.06 55.7478 349.032 55.721 349 55.7C348.8 55.5667 348.533 55.7 348.2 56.1C347.533 56.9 346.883 57.7667 346.25 58.7C345.617 59.6333 344.967 60.5667 344.3 61.5C343.884 62.1246 343.459 62.7424 343.023 63.353C341.17 65.943 339.563 67.742 338.2 68.75C337.909 68.9656 337.616 69.1779 337.321 69.387C336.14 70.221 335.333 70.692 334.9 70.8C334.817 70.8196 334.733 70.8363 334.648 70.85C333.552 71.028 332.169 70.7613 330.5 70.05C329.544 69.6427 328.574 69.1273 327.589 68.504C326.674 67.9201 325.793 67.2844 324.95 66.6C323.05 65.0667 321.433 63.3333 320.1 61.4C320.011 61.266 319.919 61.1336 319.825 61.003C319.548 60.6197 319.291 60.3147 319.053 60.088C318.944 59.9821 318.826 59.8857 318.7 59.8C319.019 59.6591 319.335 59.5114 319.648 59.357C320.359 59.0077 321.103 58.6023 321.88 58.141C322.702 57.6517 323.509 57.1378 324.3 56.6C326.367 55.2 328.183 53.5833 329.75 51.75C329.854 51.6288 329.955 51.5058 330.055 51.381C330.585 50.715 331.012 50.047 331.336 49.377C331.83 48.3901 332.091 47.3034 332.1 46.2C332.1 46.1323 332.098 46.0646 332.095 45.997C332.072 45.2639 331.77 44.5672 331.25 44.05C331.027 43.8303 330.765 43.6543 330.478 43.531C330.211 43.4137 329.91 43.3277 329.573 43.273C329.251 43.2225 328.926 43.1981 328.6 43.2C327.891 43.2064 327.186 43.3035 326.502 43.489C325.159 43.8397 323.692 44.51 322.1 45.5C321.074 46.1398 320.081 46.8324 319.127 47.575C317.636 48.7385 316.224 49.9996 314.9 51.35C314.255 52.0035 313.633 52.6789 313.034 53.375C311.581 55.0534 310.297 56.8704 309.2 58.8C309.155 57.897 309.133 56.9931 309.133 56.089C309.133 55.6259 309.139 55.1629 309.15 54.7C309.183 53.3 309.233 51.9 309.3 50.5C310.133 49.1667 311.077 47.6577 312.132 45.973C312.804 44.8986 313.477 43.8242 314.15 42.75C316.05 39.7167 318 36.5 320 33.1C320.125 32.8878 320.25 32.6755 320.374 32.463C322.185 29.372 323.944 26.2505 325.65 23.1C325.895 22.6481 326.137 22.1948 326.376 21.74C327.813 19.0053 329.005 16.492 329.95 14.2C330.087 13.8672 330.22 13.5325 330.348 13.196C330.891 11.7687 331.257 10.523 331.447 9.459C331.543 8.9448 331.595 8.42314 331.6 7.9C331.6 7.87733 331.6 7.85467 331.6 7.832C331.587 6.40467 331.187 5.494 330.4 5.1C330.29 4.81773 330.167 4.54046 330.033 4.269C329.492 3.15635 328.713 2.17672 327.75 1.4C327.633 1.30633 327.514 1.21563 327.392 1.128C326.966 0.820667 326.542 0.576333 326.12 0.395C325.547 0.139886 324.927 0.00543136 324.3 0C323.715 0.00301519 323.139 0.144909 322.62 0.414C322.254 0.601801 321.912 0.832056 321.6 1.1C318.333 4.16667 315.583 7.86667 313.35 12.2C311.117 16.5333 309.317 21.25 307.95 26.35C306.583 31.45 305.583 36.75 304.95 42.25C304.317 47.75 304 53.1667 304 58.5C304 62.9667 304.183 67.25 304.55 71.35C304.684 72.8502 304.842 74.3481 305.026 75.843V75.843ZM212.694 104.597C212.988 104.803 213.341 104.909 213.7 104.9C213.848 104.9 213.995 104.889 214.141 104.866C214.794 104.766 215.447 104.444 216.1 103.9C216.9 103.233 217.567 102.45 218.1 101.55C218.633 100.65 218.9 99.8667 218.9 99.2C218.983 98.742 218.989 98.427 218.916 98.255C218.901 98.2094 218.873 98.1697 218.834 98.1418C218.795 98.1139 218.748 98.0992 218.7 98.1C218.5 98.1 218.3 98.4 218.1 99C217.833 100.133 217.433 100.7 216.9 100.7C216.871 100.7 216.842 100.698 216.813 100.693C216.52 100.648 216.209 100.375 215.88 99.874C215.78 99.7201 215.686 99.5619 215.6 99.4C215.571 99.3459 215.542 99.2915 215.514 99.237C215.077 98.3936 214.721 97.5107 214.45 96.6C214.431 96.5373 214.413 96.4747 214.394 96.412C214.181 95.6987 214.033 95.191 213.95 94.889C213.933 94.8262 213.916 94.7632 213.9 94.7C213.525 93.3667 213.144 91.877 212.756 90.231C212.511 89.1896 212.275 88.1459 212.05 87.1C211.417 84.1667 210.9 81.0833 210.5 77.85C210.1 74.6167 209.9 71.5667 209.9 68.7C209.9 66.5667 210.083 64.35 210.45 62.05C210.817 59.75 211.467 57.5 212.4 55.3C212.687 54.7674 212.983 54.2403 213.29 53.719C213.927 52.6314 214.615 51.5739 215.35 50.55C215.393 50.4908 215.436 50.4318 215.479 50.373C216.112 49.515 216.725 48.8273 217.32 48.31C217.623 48.0418 217.951 47.8039 218.3 47.6C218.305 47.597 218.31 47.594 218.315 47.591C218.934 47.221 219.502 46.9663 220.019 46.827C220.306 46.7461 220.602 46.7034 220.9 46.7C221.384 46.6953 221.86 46.8281 222.272 47.083C222.594 47.2823 222.89 47.5587 223.159 47.912C223.389 48.2203 223.587 48.5513 223.75 48.9C224.167 49.774 224.507 50.772 224.77 51.894C224.957 52.7044 225.101 53.5242 225.2 54.35C225.204 54.384 225.208 54.418 225.212 54.452C225.467 56.525 225.597 58.6114 225.6 60.7C225.6 63.5 225.35 66.2667 224.85 69C224.819 69.1696 224.787 69.3389 224.753 69.508C224.251 72.0233 223.5 74.1873 222.5 76C222.25 76.4589 221.982 76.9069 221.694 77.343C220.981 78.4177 220.267 79.1893 219.553 79.658C219.068 79.9983 218.492 80.1869 217.9 80.2C217.166 80.2 216.522 79.8763 215.967 79.229C215.751 78.9724 215.561 78.6946 215.4 78.4C215.353 78.315 215.307 78.2293 215.262 78.143C214.664 76.995 214.21 75.6307 213.9 74.05C213.838 73.734 213.781 73.4169 213.73 73.099C213.514 71.7769 213.403 70.4397 213.4 69.1C213.392 67.5099 213.535 65.9227 213.829 64.36C214.209 62.2961 214.944 60.3136 216 58.5C216.061 58.4088 216.123 58.3181 216.185 58.228C217.024 57.016 217.875 56.1083 218.736 55.505C219.264 55.1218 219.864 54.8481 220.5 54.7C220.951 54.6 221.233 54.4997 221.345 54.399C221.361 54.3873 221.374 54.3725 221.383 54.3554C221.393 54.3383 221.398 54.3195 221.4 54.3C221.4 54.1873 221.163 54.1223 220.688 54.105C220.592 54.1016 220.496 54.0999 220.4 54.1C219.847 54.1889 219.309 54.352 218.8 54.585C217.406 55.2217 216.173 56.3933 215.1 58.1C214.647 58.8476 214.242 59.6227 213.886 60.421C213.447 61.4071 213.068 62.4186 212.75 63.45C212.117 65.4833 211.8 67.6 211.8 69.8C211.801 70.5503 211.846 71.2999 211.934 72.045C212.057 73.0744 212.246 74.0949 212.5 75.1C212.62 75.5842 212.765 76.0618 212.935 76.531C213.368 77.7487 213.998 78.8869 214.8 79.9C215.867 81.2333 217.233 81.9 218.9 81.9C219.908 81.8961 220.903 81.6736 221.816 81.248C222.506 80.9274 223.156 80.5252 223.75 80.05C224.318 79.6051 224.857 79.1252 225.365 78.613C226.148 77.8288 226.831 76.9512 227.4 76C227.994 74.852 228.541 73.5397 229.04 72.063C229.401 70.9878 229.721 69.8994 230 68.8C230.046 68.6207 230.09 68.441 230.133 68.261C230.786 65.4883 231.11 62.6485 231.1 59.8C231.1 57.5333 230.85 55.2333 230.35 52.9C229.85 50.5667 229.067 48.6167 228 47.05C227.838 46.8105 227.661 46.5817 227.469 46.365C227.019 45.8335 226.456 45.4085 225.821 45.1206C225.187 44.8327 224.497 44.689 223.8 44.7C222.981 44.708 222.168 44.8471 221.393 45.112C220.659 45.354 219.901 45.7027 219.119 46.158C218.362 46.6047 217.638 47.1033 216.95 47.65C216.639 47.8959 216.338 48.1551 216.049 48.427C213.846 50.4917 211.629 53.7827 209.4 58.3C209.4 55.7667 209.5 53.05 209.7 50.15C209.9 47.25 210.233 44.1 210.7 40.7C210.825 39.7793 210.806 39.1477 210.643 38.805C210.609 38.7149 210.549 38.6374 210.469 38.5829C210.39 38.5283 210.296 38.4994 210.2 38.5C209.828 38.5 209.308 38.86 208.64 39.58C208.454 39.7813 208.274 39.9881 208.1 40.2C207.986 40.3302 207.875 40.4625 207.766 40.597C207.578 40.8297 207.385 41.0827 207.186 41.356C206.985 41.6334 206.79 41.9148 206.6 42.2C206.067 43 205.467 43.8667 204.8 44.8C204.796 44.9043 204.792 45.0087 204.788 45.113C204.726 46.7248 204.68 48.3373 204.65 49.95C204.617 51.7167 204.6 53.4667 204.6 55.2C204.6 60.9333 204.833 66.6667 205.3 72.4C205.358 73.1134 205.421 73.8264 205.489 74.539C205.942 79.3596 206.646 84.1531 207.6 88.9C207.942 90.5921 208.332 92.2741 208.769 93.944C209.604 97.1613 210.65 100.32 211.9 103.4C212.083 103.951 212.348 104.35 212.694 104.597ZM351.7 83.8C350.1 83.8 348.667 83.4667 347.4 82.8C346.133 82.1333 345.267 81.1 344.8 79.7C343.333 80.1 341.833 80.3 340.3 80.3C340.265 80.3006 340.231 80.2962 340.197 80.287C340.072 80.2503 340.023 80.138 340.05 79.95C340.056 79.9018 340.069 79.8544 340.086 79.809C340.135 79.6843 340.225 79.6153 340.354 79.602C340.369 79.6006 340.385 79.5999 340.4 79.6C340.64 79.6219 340.881 79.6329 341.122 79.633C341.585 79.6343 342.046 79.5897 342.5 79.5C342.977 79.4043 343.451 79.2969 343.922 79.178C344.149 79.1209 344.375 79.0616 344.6 79C344.533 78.7333 344.483 78.45 344.45 78.15C344.43 77.9695 344.415 77.7884 344.407 77.607C344.402 77.5047 344.4 77.4024 344.4 77.3C344.403 76.5791 344.478 75.8602 344.623 75.154C344.722 74.6629 344.848 74.1775 345 73.7C345.467 72.1332 346.087 70.6163 346.851 69.171C347.548 67.8466 348.333 66.5701 349.2 65.35C350.131 64.0218 351.15 62.7576 352.25 61.566C353.278 60.4515 354.399 59.4258 355.6 58.5C356.274 57.9562 357.006 57.4896 357.784 57.109C358.099 56.9562 358.421 56.8197 358.75 56.7C359.206 56.5325 359.672 56.3956 360.146 56.29C360.651 56.1793 361.137 56.117 361.602 56.103C361.668 56.101 361.734 56.1 361.8 56.1C362.284 56.0963 362.766 56.1518 363.237 56.265C363.862 56.415 364.447 56.7 364.95 57.1C365.514 57.5549 365.907 58.1877 366.065 58.895C366.155 59.261 366.2 59.6627 366.2 60.1C366.198 60.5044 366.156 60.9076 366.076 61.304C366.003 61.6787 365.897 62.071 365.759 62.481C365.694 62.6724 365.624 62.8621 365.55 63.05C365.117 64.15 364.433 65.4 363.5 66.8C362.804 67.7947 361.885 68.873 360.743 70.035C360.336 70.4479 359.922 70.853 359.5 71.25C358.259 72.4141 356.947 73.4998 355.571 74.501C354.909 74.9842 354.235 75.4507 353.55 75.9C351.317 77.3667 348.9 78.5 346.3 79.3C346.7 81.5 347.933 82.6 350 82.6C351.867 82.6 354 81.8 356.4 80.2C358.2 79 359.967 77.4167 361.7 75.45C363.433 73.4833 365.017 71.35 366.45 69.05C367.883 66.75 369.017 64.45 369.85 62.15C370.683 59.85 371.1 57.7667 371.1 55.9C371.1 54.8307 370.862 53.9467 370.385 53.248C370.327 53.1627 370.265 53.0799 370.2 53C369.923 52.6709 369.568 52.4159 369.168 52.258C368.615 52.0267 367.918 51.9073 367.079 51.9C367.053 51.8999 367.026 51.8999 367 51.9C366.827 51.9004 366.654 51.9071 366.481 51.92C366.37 51.9279 366.26 51.9379 366.15 51.95C365.955 51.9718 365.761 51.9992 365.568 52.032C365.445 52.0528 365.322 52.0755 365.2 52.1C363.462 52.3528 361.75 52.7604 360.084 53.318C359.905 53.3771 359.727 53.4378 359.55 53.5C358.527 53.8573 357.516 54.2482 356.518 54.672C355.802 54.9767 355.096 55.3028 354.4 55.65C353.951 55.8736 353.507 56.1084 353.07 56.354C352.233 56.826 351.547 57.2773 351.012 57.708C350.974 57.7384 350.937 57.769 350.9 57.8C350.882 57.8957 350.838 57.9848 350.774 58.0581C350.71 58.1315 350.627 58.1863 350.535 58.217C350.395 58.2723 350.217 58.3 350 58.3C349.516 58.3 348.989 58.17 348.418 57.91C348.276 57.845 348.137 57.775 348 57.7C347.852 57.6199 347.708 57.5338 347.567 57.442C347.134 57.1587 346.882 56.8933 346.811 56.646C346.807 56.6308 346.803 56.6155 346.8 56.6C347.032 55.1946 347.491 53.8361 348.157 52.577C348.768 51.3977 349.566 50.222 350.55 49.05C352.65 46.55 355.417 44.3667 358.85 42.5C362.283 40.6333 366.167 39.4333 370.5 38.9C370.554 38.8734 370.611 38.8529 370.67 38.839C370.777 38.813 370.904 38.8 371.05 38.8H371.7C372.293 38.8027 372.884 38.8711 373.462 39.004C373.865 39.0955 374.261 39.211 374.65 39.35C374.948 39.4507 375.225 39.6052 375.467 39.806C375.841 40.1253 376.072 40.5507 376.16 41.082C376.187 41.2533 376.201 41.4265 376.2 41.6C376.2 42.4947 375.883 43.4247 375.25 44.39C375.124 44.5817 374.99 44.7685 374.85 44.95C374.535 45.3633 374.184 45.7484 373.802 46.101C373.201 46.6503 372.567 47.05 371.9 47.3C371.846 47.354 371.748 47.386 371.606 47.396C371.571 47.3986 371.535 47.3999 371.5 47.4C371.38 47.4 371.314 47.3323 371.302 47.197C371.301 47.1814 371.3 47.1657 371.3 47.15C371.3 47.0093 371.395 46.8563 371.586 46.691C371.623 46.6594 371.661 46.629 371.7 46.6C371.793 46.5532 371.884 46.5035 371.974 46.451C372.162 46.3417 372.38 46.203 372.627 46.035C372.668 46.0068 372.709 45.9785 372.75 45.95C373.138 45.6813 373.459 45.453 373.713 45.265C373.742 45.2434 373.771 45.2218 373.8 45.2C373.965 44.924 374.062 44.6937 374.091 44.509C374.097 44.4729 374.1 44.4365 374.1 44.4C374.1 44.0293 373.785 43.8303 373.156 43.803C373.104 43.8009 373.052 43.7999 373 43.8C372.216 43.8318 371.435 43.9173 370.662 44.056C369.255 44.3 367.685 44.7147 365.95 45.3C363.896 46.0012 361.922 46.9184 360.062 48.036C359.29 48.496 358.536 48.9843 357.8 49.5C355.133 51.3667 353 53.7667 351.4 56.7C352.271 56.15 353.299 55.5763 354.485 54.979C355.052 54.6939 355.624 54.4175 356.2 54.15C357.943 53.3433 359.738 52.657 361.575 52.096C361.849 52.0115 362.124 51.9295 362.4 51.85C363.513 51.5258 364.646 51.2782 365.793 51.109C366.722 50.9724 367.661 50.9025 368.6 50.9C371.533 50.9 373.517 51.6167 374.55 53.05C375.56 54.4534 376.102 56.1397 376.099 57.869C376.1 57.9127 376.1 57.9563 376.1 58C376.088 59.9432 375.752 61.8708 375.104 63.703C374.683 64.9095 374.163 66.0792 373.55 67.2C371.85 70.3333 369.7 73.2 367.1 75.8C364.5 78.4 361.767 80.4333 358.9 81.9C357.44 82.7057 355.86 83.2713 354.22 83.575C353.388 83.7248 352.545 83.8001 351.7 83.8V83.8ZM96.656 81.368C96.7359 81.3877 96.8177 81.3985 96.9 81.4C97.8393 81.4 98.813 81.1743 99.821 80.723C100.424 80.4487 101.003 80.1232 101.55 79.75C101.577 79.7317 101.604 79.7134 101.631 79.695C102.472 79.1223 103.308 78.4527 104.139 77.686C104.934 76.9487 105.689 76.1689 106.4 75.35C108 73.5167 109.5 71.5333 110.9 69.4C112.3 67.2667 113.5 65.2 114.5 63.2C115.033 66.1333 115.883 68.9333 117.05 71.6C117.416 72.4357 117.838 73.2453 118.315 74.023C119.412 75.7948 120.754 77.4029 122.3 78.8C123.967 80.2667 125.933 81 128.2 81C130.133 81 132.133 80.5333 134.2 79.6C134.389 79.5527 134.545 79.4883 134.668 79.407C134.772 79.3439 134.857 79.2545 134.915 79.148C134.974 79.0414 135.003 78.9214 135 78.8C135 78.6667 134.933 78.6 134.8 78.6C134.682 78.6 134.565 78.6128 134.45 78.638C134.294 78.6731 134.143 78.7275 134 78.8C133.733 78.8667 133.45 78.95 133.15 79.05C133.145 79.0517 133.141 79.0533 133.136 79.055C132.834 79.1528 132.518 79.2017 132.2 79.2C131.329 79.2 130.443 78.9163 129.54 78.349C129.1 78.0687 128.685 77.7512 128.3 77.4C127.509 76.6873 126.758 75.822 126.048 74.804C125.537 74.0645 125.07 73.2951 124.65 72.5C123.55 70.4333 122.6 68.1833 121.8 65.75C121.602 65.1486 121.412 64.5446 121.231 63.938C120.708 62.1962 120.264 60.4317 119.9 58.65C119.433 56.35 119.167 54.3667 119.1 52.7C119.167 52.3667 118.933 52.3333 118.4 52.6C118.05 52.7753 117.657 53.0077 117.221 53.297C116.977 53.4596 116.737 53.6273 116.5 53.8C115.767 54.3333 115.117 54.8833 114.55 55.45C114.486 55.5134 114.424 55.5777 114.362 55.643C113.921 56.1123 113.7 56.4647 113.7 56.7L113.9 59.1C113.967 59.9 114.067 60.7 114.2 61.5C113.704 62.492 113.133 63.526 112.487 64.602C111.885 65.6015 111.256 66.5846 110.6 67.55C109.133 69.7167 107.583 71.75 105.95 73.65C104.317 75.55 102.717 77.1 101.15 78.3C100.134 79.078 99.2093 79.604 98.376 79.878C97.9651 80.0191 97.5344 80.0941 97.1 80.1C96.6727 80.1 96.3847 79.8113 96.236 79.234C96.196 79.0749 96.1672 78.9132 96.15 78.75C96.1404 78.6638 96.1324 78.5775 96.126 78.491C96.084 77.9163 96.1043 77.261 96.187 76.525C96.2297 76.1484 96.2841 75.7732 96.35 75.4C96.5833 74.0667 96.8667 72.7333 97.2 71.4C97.7333 69.4 98.4667 67.0667 99.4 64.4C100.333 61.7333 101.517 59.1 102.95 56.5C103.062 56.2977 103.176 56.0967 103.292 55.897C104.601 53.6207 106.238 51.5495 108.15 49.75C110.183 47.85 112.533 46.7 115.2 46.3C115.907 46.246 116.325 46.6123 116.456 47.399C116.487 47.5978 116.502 47.7988 116.5 48C116.507 48.5954 116.376 49.1843 116.116 49.72C115.868 50.2114 115.522 50.647 115.1 51C115.013 51.0749 114.923 51.1473 114.832 51.217C114.025 51.8534 113.028 52.1996 112 52.2C111.958 52.2 111.915 52.2013 111.873 52.204C111.558 52.224 111.4 52.3227 111.4 52.5C111.4 52.5275 111.409 52.5542 111.426 52.576C111.535 52.7253 111.993 52.8 112.8 52.8C113.133 52.8 113.45 52.7833 113.75 52.75C114.05 52.7167 114.333 52.6667 114.6 52.6C115.367 52.4333 116.046 52.204 116.638 51.912C117.197 51.6434 117.708 51.2846 118.15 50.85C118.257 50.7438 118.359 50.6337 118.458 50.52C118.702 50.2373 118.898 49.953 119.047 49.667C119.274 49.2469 119.396 48.7776 119.4 48.3C119.4 47.3 118.717 46.4167 117.35 45.65C116.968 45.4355 116.571 45.2496 116.161 45.094C115.086 44.6923 113.947 44.491 112.8 44.5C111.652 44.5437 110.509 44.6808 109.383 44.91C107.666 45.2523 106.016 45.8739 104.5 46.75C102.167 48.1167 100.167 49.8333 98.5 51.9C96.8333 53.9667 95.45 56.1333 94.35 58.4C93.25 60.6667 92.3333 62.8 91.6 64.8C91.3087 65.4667 91.069 66.2377 90.881 67.113C90.763 67.671 90.6693 68.2339 90.6 68.8C90.4 70.4 90.3667 72 90.5 73.6C90.502 73.6233 90.5039 73.6467 90.506 73.67C90.5693 74.394 90.6773 75.073 90.83 75.707C90.9957 76.412 91.2371 77.0969 91.55 77.75C91.6793 78.0188 91.8319 78.2758 92.006 78.518C92.481 79.2053 93.1897 79.6964 94 79.9C94.5333 80.3 95.0833 80.65 95.65 80.95C96.066 81.17 96.4013 81.3093 96.656 81.368ZM238.456 81.368C238.536 81.3877 238.618 81.3985 238.7 81.4C239.639 81.4 240.613 81.1743 241.621 80.723C242.224 80.4487 242.803 80.1232 243.35 79.75C243.377 79.7317 243.404 79.7134 243.431 79.695C244.272 79.1223 245.108 78.4527 245.939 77.686C246.734 76.9487 247.489 76.1689 248.2 75.35C249.8 73.5167 251.3 71.5333 252.7 69.4C254.1 67.2667 255.3 65.2 256.3 63.2C256.833 66.1333 257.683 68.9333 258.85 71.6C259.216 72.4357 259.638 73.2453 260.115 74.023C261.212 75.7948 262.554 77.4029 264.1 78.8C265.767 80.2667 267.733 81 270 81C271.933 81 273.933 80.5333 276 79.6C276.189 79.5527 276.345 79.4883 276.468 79.407C276.572 79.3439 276.657 79.2545 276.715 79.148C276.774 79.0414 276.803 78.9214 276.8 78.8C276.8 78.6667 276.733 78.6 276.6 78.6C276.482 78.6 276.365 78.6128 276.25 78.638C276.094 78.6731 275.943 78.7275 275.8 78.8C275.533 78.8667 275.25 78.95 274.95 79.05C274.945 79.0517 274.941 79.0533 274.936 79.055C274.634 79.1528 274.318 79.2017 274 79.2C273.129 79.2 272.243 78.9163 271.34 78.349C270.9 78.0687 270.485 77.7512 270.1 77.4C269.309 76.6873 268.558 75.822 267.848 74.804C267.337 74.0645 266.87 73.2951 266.45 72.5C265.35 70.4333 264.4 68.1833 263.6 65.75C263.402 65.1486 263.212 64.5446 263.031 63.938C262.508 62.1962 262.064 60.4317 261.7 58.65C261.233 56.35 260.967 54.3667 260.9 52.7C260.967 52.3667 260.733 52.3333 260.2 52.6C259.85 52.7753 259.457 53.0077 259.021 53.297C258.777 53.4596 258.537 53.6273 258.3 53.8C257.567 54.3333 256.917 54.8833 256.35 55.45C256.286 55.5134 256.224 55.5777 256.162 55.643C255.721 56.1123 255.5 56.4647 255.5 56.7L255.7 59.1C255.767 59.9 255.867 60.7 256 61.5C255.504 62.492 254.933 63.526 254.287 64.602C253.685 65.6015 253.056 66.5846 252.4 67.55C250.933 69.7167 249.383 71.75 247.75 73.65C246.117 75.55 244.517 77.1 242.95 78.3C241.934 79.078 241.009 79.604 240.176 79.878C239.765 80.0191 239.334 80.0941 238.9 80.1C238.473 80.1 238.185 79.8113 238.036 79.234C237.996 79.0749 237.967 78.9132 237.95 78.75C237.94 78.6638 237.932 78.5775 237.926 78.491C237.884 77.9163 237.904 77.261 237.987 76.525C238.03 76.1484 238.084 75.7732 238.15 75.4C238.383 74.0667 238.667 72.7333 239 71.4C239.533 69.4 240.267 67.0667 241.2 64.4C242.133 61.7333 243.317 59.1 244.75 56.5C244.862 56.2977 244.976 56.0967 245.092 55.897C246.401 53.6207 248.038 51.5495 249.95 49.75C251.983 47.85 254.333 46.7 257 46.3C257.707 46.246 258.125 46.6123 258.256 47.399C258.287 47.5978 258.302 47.7988 258.3 48C258.307 48.5954 258.176 49.1843 257.916 49.72C257.668 50.2114 257.322 50.647 256.9 51C256.813 51.0749 256.723 51.1473 256.632 51.217C255.825 51.8534 254.828 52.1996 253.8 52.2C253.758 52.2 253.715 52.2013 253.673 52.204C253.358 52.224 253.2 52.3227 253.2 52.5C253.2 52.5275 253.209 52.5542 253.226 52.576C253.335 52.7253 253.793 52.8 254.6 52.8C254.933 52.8 255.25 52.7833 255.55 52.75C255.85 52.7167 256.133 52.6667 256.4 52.6C257.167 52.4333 257.846 52.204 258.438 51.912C258.997 51.6434 259.508 51.2846 259.95 50.85C260.057 50.7438 260.159 50.6337 260.258 50.52C260.502 50.2373 260.698 49.953 260.847 49.667C261.074 49.2469 261.196 48.7776 261.2 48.3C261.2 47.3 260.517 46.4167 259.15 45.65C258.768 45.4355 258.371 45.2496 257.961 45.094C256.886 44.6923 255.747 44.491 254.6 44.5C253.452 44.5437 252.309 44.6808 251.183 44.91C249.466 45.2523 247.816 45.8739 246.3 46.75C243.967 48.1167 241.967 49.8333 240.3 51.9C238.633 53.9667 237.25 56.1333 236.15 58.4C235.05 60.6667 234.133 62.8 233.4 64.8C233.109 65.4667 232.869 66.2377 232.681 67.113C232.563 67.671 232.469 68.2339 232.4 68.8C232.2 70.4 232.167 72 232.3 73.6C232.302 73.6233 232.304 73.6467 232.306 73.67C232.369 74.394 232.477 75.073 232.63 75.707C232.796 76.412 233.037 77.0969 233.35 77.75C233.479 78.0188 233.632 78.2758 233.806 78.518C234.281 79.2053 234.99 79.6964 235.8 79.9C236.333 80.3 236.883 80.65 237.45 80.95C237.866 81.17 238.201 81.3093 238.456 81.368ZM63.239 82.457C63.357 82.4867 63.4783 82.5011 63.6 82.5C63.9687 82.5 64.4013 82.4123 64.898 82.237C65.1362 82.1519 65.3704 82.0561 65.6 81.95C66.4 81.5833 67.1 81.3 67.7 81.1C67.6886 81.0689 67.6779 81.0376 67.668 81.006C67.5333 80.588 67.4497 79.918 67.417 78.996C67.4054 78.6641 67.3997 78.3321 67.4 78C67.4 76.65 67.5637 75.2313 67.891 73.744C68.1638 72.5238 68.5176 71.3232 68.95 70.15C69.9833 67.3167 71.2167 64.6167 72.65 62.05C73.5907 60.3653 74.4667 58.9033 75.278 57.664C75.6686 57.0646 76.0761 56.4764 76.5 55.9C76.6687 55.655 76.8475 55.4171 77.036 55.187C77.2367 54.943 77.4357 54.728 77.633 54.542C77.8233 54.3596 78.0298 54.195 78.25 54.05C78.6487 53.792 78.9893 53.6247 79.272 53.548C79.3788 53.5177 79.489 53.5015 79.6 53.5C79.6778 53.4988 79.7554 53.5076 79.831 53.526C80.1423 53.608 80.2463 53.8783 80.143 54.337C80.1306 54.3918 80.1162 54.4462 80.1 54.5C79.9657 55.0646 79.8374 55.6307 79.715 56.198C79.437 57.4847 79.1683 58.864 78.909 60.336C78.6714 61.6877 78.4517 63.0425 78.25 64.4C77.6833 68.2 77.3667 72.1 77.3 76.1C77.3162 76.1471 77.3366 76.1926 77.361 76.236C77.5197 76.526 77.8917 76.877 78.477 77.289C78.6809 77.4316 78.8887 77.5687 79.1 77.7C80.1667 78.3667 81.2833 78.9 82.45 79.3C82.5444 79.3326 82.639 79.3642 82.734 79.395C83.564 79.6623 84.1113 79.754 84.376 79.67C84.4224 79.657 84.4649 79.633 84.5 79.6C84.7961 78.7172 85.1203 77.8441 85.472 76.982C86.4427 74.592 87.7353 71.9147 89.35 68.95C90.2144 67.3661 91.1255 65.8081 92.082 64.278C93.7749 61.576 95.5825 58.9476 97.5 56.4C97.5283 56.3646 97.5553 56.3283 97.581 56.291C97.7337 56.0697 97.7677 55.899 97.683 55.779C97.6604 55.7478 97.6323 55.721 97.6 55.7C97.4 55.5667 97.1333 55.7 96.8 56.1C93.6 60.0333 90.9167 63.85 88.75 67.55C88.5258 67.9328 88.3015 68.3154 88.077 68.698C86.2117 71.8787 84.6527 74.5127 83.4 76.6C83.3946 76.5894 83.3892 76.5787 83.384 76.568C83.1893 76.1567 83.0687 75.4853 83.022 74.554C83.0068 74.2362 82.9994 73.9181 83 73.6C83 72.6833 83.0457 71.6757 83.137 70.577C83.1951 69.8834 83.2661 69.1909 83.35 68.5C83.5833 66.5667 83.9 64.5833 84.3 62.55C84.7 60.5167 85.1167 58.65 85.55 56.95C85.6459 56.5735 85.7449 56.1979 85.847 55.823C86.1603 54.671 86.4447 53.7633 86.7 53.1C86.9667 52.2333 87.1 51.4 87.1 50.6C87.1 48.6667 86.2667 47.7 84.6 47.7C83.6426 47.7103 82.7027 47.9584 81.865 48.422C81.225 48.762 80.588 49.2223 79.954 49.803C79.3565 50.3578 78.8034 50.9586 78.3 51.6C75.9667 54.6 73.8667 57.7667 72 61.1C70.1333 64.4333 68.4333 67.9 66.9 71.5C66.9 69.7 67.0167 67.7333 67.25 65.6C67.3078 65.0723 67.3715 64.5453 67.441 64.019C67.6391 62.504 67.8923 60.9966 68.2 59.5C68.4753 58.1707 68.766 57.0307 69.072 56.08C69.1992 55.6812 69.342 55.2876 69.5 54.9C69.5007 54.896 69.5014 54.892 69.502 54.888C69.5593 54.5513 69.2753 53.9387 68.65 53.05C68.4375 52.7475 68.2158 52.4517 67.985 52.163C67.5734 51.6459 67.1274 51.1571 66.65 50.7C66.6015 50.6535 66.5521 50.6078 66.502 50.563C65.886 50.017 65.4853 49.9293 65.3 50.3C65.0592 50.7379 64.8155 51.1743 64.569 51.609C64.3103 52.0643 64.037 52.5393 63.749 53.034C63.386 53.658 63.0197 54.28 62.65 54.9C61.6167 56.6333 60.4333 58.4667 59.1 60.4C59.048 60.5047 59.047 60.6197 59.097 60.745C59.1119 60.7813 59.1296 60.8164 59.15 60.85C59.1659 60.8769 59.1832 60.903 59.202 60.928C59.232 60.9673 59.2633 60.9997 59.296 61.025C59.3533 61.0729 59.4254 61.0994 59.5 61.1C59.6333 61.1 59.7333 61.0667 59.8 61C59.804 60.9947 59.808 60.9893 59.812 60.984C60.7393 59.792 61.402 58.8807 61.8 58.25C61.8126 58.2303 61.8253 58.2106 61.838 58.191C62.2155 57.5964 62.6373 57.0311 63.1 56.5C62.9667 57.3667 62.7167 58.7833 62.35 60.75C61.9833 62.7167 61.65 64.8833 61.35 67.25C61.2941 67.6901 61.2431 68.1308 61.197 68.572C61.0022 70.4083 60.9031 72.2534 60.9 74.1C60.8992 74.8304 60.9248 75.5605 60.977 76.289C61.0371 77.148 61.145 78.003 61.3 78.85C61.3594 79.1726 61.4338 79.4923 61.523 79.808C61.799 80.776 62.1913 81.54 62.7 82.1C62.8326 82.2781 63.0233 82.4044 63.239 82.457V82.457ZM141.2 82.3C137.733 82.3 135.2 80.7833 133.6 77.75C132.829 76.2595 132.256 74.6743 131.897 73.035C131.432 70.9937 131.2 68.7153 131.2 66.2C131.202 64.6393 131.267 63.0794 131.395 61.524C131.476 60.5306 131.577 59.5391 131.7 58.55C132.033 55.85 132.583 53.3167 133.35 50.95C133.617 50.114 133.94 49.2972 134.318 48.505C134.915 47.2683 135.609 46.2333 136.4 45.4C137.303 44.3387 138.48 43.5448 139.802 43.104C140.661 42.7993 141.621 42.5937 142.683 42.487C143.287 42.4276 143.893 42.3986 144.5 42.4C146.1 42.4 147.733 42.8833 149.4 43.85C150.039 44.2123 150.587 44.7163 151.001 45.3234C151.416 45.9305 151.685 46.6245 151.789 47.352C151.865 47.7972 151.902 48.2483 151.9 48.7C151.896 49.5528 151.777 50.4011 151.546 51.222C151.435 51.6214 151.303 52.0147 151.15 52.4C150.84 53.1984 150.422 53.9505 149.907 54.635C149.647 54.9783 149.36 55.301 149.05 55.6C148.15 56.4667 147.1 56.9 145.9 56.9C145.7 56.9 145.5 56.8833 145.3 56.85C145.1 56.8167 144.867 56.7667 144.6 56.7C144.52 56.5795 144.436 56.4612 144.35 56.345C144.301 56.2791 144.251 56.2141 144.2 56.15C144.165 56.1064 144.132 56.0607 144.103 56.013C144.036 55.9023 144.001 55.8 144 55.706C144 55.704 144 55.702 144 55.7C144 55.45 144.293 55.2293 144.878 55.038C144.919 55.0248 144.959 55.0122 145 55C145.261 55.0867 145.493 55.1453 145.696 55.176C145.797 55.1914 145.898 55.1995 146 55.2C146.916 55.2 147.64 54.8467 148.171 54.14C148.181 54.1267 148.19 54.1134 148.2 54.1C148.653 53.4724 148.924 52.7312 148.981 51.959C148.994 51.8063 149 51.6532 149 51.5C148.998 51.0813 148.963 50.6634 148.897 50.25C148.835 49.8513 148.745 49.433 148.627 48.995C148.587 48.846 148.545 48.6977 148.5 48.55C148.288 47.8393 147.995 47.1557 147.625 46.513C147.451 46.2138 147.259 45.9255 147.05 45.65C146.841 45.3689 146.591 45.1205 146.309 44.913C145.842 44.5734 145.278 44.3935 144.7 44.4C143.909 44.4118 143.146 44.6957 142.54 45.204C141.783 45.7987 141.074 46.7237 140.411 47.979C140.303 48.1838 140.199 48.3909 140.1 48.6C139.574 49.532 139.135 50.5101 138.787 51.522C138.448 52.4907 138.159 53.54 137.922 54.67C137.861 54.9625 137.803 55.2559 137.75 55.55C137.25 58.3167 137 61.1 137 63.9C137.002 65.1972 137.054 66.4938 137.156 67.787C137.22 68.6096 137.302 69.4308 137.4 70.25C137.627 72.152 138.036 73.8 138.625 75.194C138.726 75.4327 138.834 75.6682 138.95 75.9C139.16 76.333 139.433 76.7332 139.758 77.088C140.094 77.451 140.503 77.738 140.959 77.9298C141.414 78.1216 141.906 78.2137 142.4 78.2C143.039 78.1931 143.671 78.0677 144.264 77.83C145.035 77.5327 145.83 77.056 146.65 76.4C148.103 75.2373 149.556 73.762 151.009 71.974C151.056 71.9161 151.103 71.8581 151.15 71.8C152.65 69.9333 154.083 67.9833 155.45 65.95C156.817 63.9167 158.067 62.0667 159.2 60.4C159.466 60.0084 159.735 59.6187 160.006 59.231C160.769 58.1437 161.4 57.3 161.9 56.7C161.958 56.6307 162.017 56.5627 162.077 56.496C162.318 56.232 162.492 56.1 162.6 56.1C162.639 56.0997 162.677 56.1034 162.715 56.111C162.988 56.1683 162.916 56.4647 162.5 57C161.233 58.6667 159.8 60.7667 158.2 63.3C156.759 65.5834 155.333 67.8768 153.924 70.18C153.716 70.5198 153.508 70.8598 153.3 71.2C152.197 73.012 151.051 74.7972 149.863 76.554C149.351 77.309 148.83 78.0577 148.3 78.8C147.96 79.2727 147.583 79.7172 147.171 80.129C146.733 80.5623 146.282 80.917 145.819 81.193C145.512 81.3773 145.187 81.5304 144.85 81.65C143.617 82.0833 142.4 82.3 141.2 82.3ZM283 82.3C279.533 82.3 277 80.7833 275.4 77.75C274.629 76.2595 274.056 74.6743 273.697 73.035C273.232 70.9937 273 68.7153 273 66.2C273.002 64.6393 273.067 63.0794 273.195 61.524C273.276 60.5306 273.377 59.5391 273.5 58.55C273.833 55.85 274.383 53.3167 275.15 50.95C275.417 50.114 275.74 49.2972 276.118 48.505C276.715 47.2683 277.409 46.2333 278.2 45.4C279.103 44.3387 280.28 43.5448 281.602 43.104C282.461 42.7993 283.421 42.5937 284.483 42.487C285.087 42.4276 285.693 42.3986 286.3 42.4C287.9 42.4 289.533 42.8833 291.2 43.85C291.839 44.2123 292.387 44.7163 292.801 45.3234C293.216 45.9305 293.485 46.6245 293.589 47.352C293.665 47.7972 293.702 48.2483 293.7 48.7C293.696 49.5528 293.577 50.4011 293.346 51.222C293.235 51.6214 293.103 52.0147 292.95 52.4C292.64 53.1984 292.222 53.9505 291.707 54.635C291.447 54.9783 291.16 55.301 290.85 55.6C289.95 56.4667 288.9 56.9 287.7 56.9C287.5 56.9 287.3 56.8833 287.1 56.85C286.9 56.8167 286.667 56.7667 286.4 56.7C286.32 56.5795 286.236 56.4612 286.15 56.345C286.101 56.2791 286.051 56.2141 286 56.15C285.965 56.1064 285.932 56.0607 285.903 56.013C285.836 55.9023 285.801 55.8 285.8 55.706C285.8 55.704 285.8 55.702 285.8 55.7C285.8 55.45 286.093 55.2293 286.678 55.038C286.719 55.0248 286.759 55.0122 286.8 55C287.061 55.0867 287.293 55.1453 287.496 55.176C287.597 55.1914 287.698 55.1995 287.8 55.2C288.716 55.2 289.44 54.8467 289.971 54.14C289.981 54.1267 289.99 54.1134 290 54.1C290.453 53.4724 290.724 52.7312 290.781 51.959C290.794 51.8063 290.8 51.6532 290.8 51.5C290.798 51.0813 290.763 50.6634 290.697 50.25C290.635 49.8513 290.545 49.433 290.427 48.995C290.387 48.846 290.345 48.6977 290.3 48.55C290.088 47.8393 289.795 47.1557 289.425 46.513C289.251 46.2138 289.059 45.9255 288.85 45.65C288.641 45.3689 288.391 45.1205 288.109 44.913C287.642 44.5734 287.078 44.3935 286.5 44.4C285.709 44.4118 284.946 44.6957 284.34 45.204C283.583 45.7987 282.874 46.7237 282.211 47.979C282.103 48.1838 281.999 48.3909 281.9 48.6C281.374 49.532 280.935 50.5101 280.587 51.522C280.248 52.4907 279.959 53.54 279.722 54.67C279.66 54.9625 279.603 55.2559 279.55 55.55C279.05 58.3167 278.8 61.1 278.8 63.9C278.802 65.1972 278.854 66.4938 278.956 67.787C279.02 68.6096 279.102 69.4308 279.2 70.25C279.427 72.152 279.836 73.8 280.425 75.194C280.526 75.4327 280.634 75.6682 280.75 75.9C280.96 76.333 281.233 76.7332 281.558 77.088C281.894 77.451 282.303 77.738 282.759 77.9298C283.214 78.1216 283.706 78.2137 284.2 78.2C284.839 78.1931 285.471 78.0677 286.064 77.83C286.835 77.5327 287.63 77.056 288.45 76.4C289.903 75.2373 291.356 73.762 292.809 71.974C292.856 71.9161 292.903 71.8581 292.95 71.8C294.45 69.9333 295.883 67.9833 297.25 65.95C298.617 63.9167 299.867 62.0667 301 60.4C301.266 60.0084 301.535 59.6187 301.806 59.231C302.569 58.1437 303.2 57.3 303.7 56.7C303.758 56.6307 303.817 56.5627 303.877 56.496C304.118 56.232 304.292 56.1 304.4 56.1C304.439 56.0997 304.477 56.1034 304.515 56.111C304.788 56.1683 304.716 56.4647 304.3 57C303.033 58.6667 301.6 60.7667 300 63.3C298.559 65.5834 297.133 67.8768 295.724 70.18C295.516 70.5198 295.308 70.8598 295.1 71.2C293.997 73.012 292.851 74.7972 291.663 76.554C291.151 77.309 290.63 78.0577 290.1 78.8C289.76 79.2727 289.383 79.7172 288.971 80.129C288.533 80.5623 288.082 80.917 287.619 81.193C287.312 81.3773 286.987 81.5304 286.65 81.65C285.417 82.0833 284.2 82.3 283 82.3ZM167.6 48.2C168.089 47.4116 168.574 46.6209 169.056 45.828C169.489 45.1147 169.947 44.3557 170.43 43.551C170.939 42.7019 171.445 41.8515 171.95 41C173.65 38.1333 175.433 35.05 177.3 31.75C178.891 28.9397 180.436 26.103 181.932 23.241C182.139 22.8445 182.345 22.4475 182.55 22.05C184.183 18.8833 185.5 16.0167 186.5 13.45C186.735 12.8506 186.953 12.245 187.156 11.634C187.581 10.346 187.845 9.24467 187.949 8.33C187.982 8.05451 187.999 7.77741 188 7.5C188.002 7.23565 187.981 6.97161 187.937 6.711C187.766 5.77033 187.254 5.3 186.4 5.3C185.541 5.3 184.71 5.66733 183.907 6.402C183.837 6.46646 183.768 6.53248 183.7 6.6C180.95 9.24102 178.581 12.2527 176.663 15.548C175.573 17.4028 174.6 19.3239 173.75 21.3C171.183 27.2333 169.433 33.3667 168.5 39.7C168.033 42.5667 167.733 45.4 167.6 48.2ZM309.4 48.2C309.889 47.4116 310.374 46.6209 310.856 45.828C311.289 45.1147 311.747 44.3557 312.23 43.551C312.739 42.7019 313.245 41.8515 313.75 41C315.45 38.1333 317.233 35.05 319.1 31.75C320.691 28.9397 322.236 26.103 323.732 23.241C323.939 22.8445 324.145 22.4475 324.35 22.05C325.983 18.8833 327.3 16.0167 328.3 13.45C328.535 12.8506 328.753 12.245 328.956 11.634C329.381 10.346 329.645 9.24467 329.749 8.33C329.782 8.05451 329.799 7.77741 329.8 7.5C329.802 7.23565 329.781 6.97161 329.737 6.711C329.566 5.77033 329.054 5.3 328.2 5.3C327.341 5.3 326.51 5.66733 325.707 6.402C325.637 6.46646 325.568 6.53248 325.5 6.6C322.75 9.24102 320.381 12.2527 318.463 15.548C317.373 17.4028 316.4 19.3239 315.55 21.3C312.983 27.2333 311.233 33.3667 310.3 39.7C309.833 42.5667 309.533 45.4 309.4 48.2ZM10.1 74.5C13.5 73.0333 16.7167 71.1333 19.75 68.8C21.3835 67.5483 22.9646 66.2295 24.489 64.847C25.5814 63.855 26.6358 62.8219 27.65 61.75C29.4907 59.7993 30.9353 58.1317 31.984 56.747C32.195 56.4688 32.4003 56.1864 32.6 55.9C33.0104 55.3135 33.3948 54.7093 33.752 54.089C34.0873 53.5017 34.373 52.934 34.609 52.386C34.7135 52.1437 34.8106 51.8983 34.9 51.65C35.0519 51.2308 35.1851 50.8051 35.299 50.374C35.4997 49.604 35.6 48.9127 35.6 48.3C35.6039 47.8638 35.5576 47.4286 35.462 47.003C35.266 46.1663 34.862 45.4987 34.25 45C33.35 44.2667 32.2333 43.9 30.9 43.9C30.2755 43.9037 29.6531 43.9727 29.043 44.106C28.4797 44.2253 27.895 44.3967 27.289 44.62C27.1755 44.662 27.0625 44.7054 26.95 44.75C26.1059 45.0879 25.2923 45.4974 24.518 45.974C23.8547 46.3804 23.2144 46.823 22.6 47.3C18.9388 50.2489 15.8864 53.8821 13.613 57.997C13.5751 58.0646 13.5375 58.1322 13.5 58.2C11.1 62.5333 9.9 67 9.9 71.6C9.9 72.1333 9.91667 72.6333 9.95 73.1C9.98333 73.5667 10.0333 74.0333 10.1 74.5ZM346.3 78.5C348.196 77.8241 350.015 76.9492 351.726 75.89C352.14 75.6358 352.548 75.3724 352.95 75.1C354.254 74.2204 355.518 73.2831 356.739 72.291C357.427 71.7311 358.097 71.1505 358.75 70.55C359.866 69.522 360.802 68.5727 361.559 67.702C361.925 67.2838 362.273 66.8494 362.6 66.4C363.315 65.328 363.883 64.344 364.304 63.448C364.428 63.1858 364.543 62.9196 364.65 62.65C364.959 61.8673 365.157 61.1607 365.246 60.53C365.281 60.2882 365.299 60.0443 365.3 59.8C365.306 59.4062 365.254 59.0137 365.146 58.635C364.795 57.4783 363.847 56.9 362.3 56.9C361.928 56.9023 361.557 56.9408 361.193 57.015C360.694 57.1137 360.163 57.2753 359.6 57.5C359.088 57.7074 358.594 57.9566 358.123 58.245C357.662 58.525 357.194 58.8517 356.719 59.225C356.646 59.2827 356.573 59.3411 356.5 59.4C355.281 60.4005 354.169 61.5237 353.18 62.752C352.272 63.8757 351.443 65.0613 350.7 66.3C349.976 67.4914 349.306 68.715 348.693 69.967C348.047 71.2943 347.512 72.5817 347.087 73.829C347.023 74.0186 346.96 74.209 346.9 74.4C346.367 76 346.167 77.3667 346.3 78.5Z" fill="white" stroke="white" stroke-width="0.25" stroke-linecap="round"/>
</g>
<defs>
<clipPath id="clip0_904:783">
<rect width="376.2" height="104.901" fill="white"/>
</clipPath>
</defs>
</svg>
